<svg width="304" height="214" viewBox="0 0 304 214" fill="none" xmlns="http://www.w3.org/2000/svg">
<rect width="304" height="214" fill="#E3AD19"/>
<g clip-path="url(#clip0_208_485)">
<path fill-rule="evenodd" clip-rule="evenodd" d="M183.132 94.2139C183.132 94.2139 184.002 74.873 164.053 70.8584C144.105 66.8438 131.996 77.7918 130.215 85.4573C128.433 93.1227 127.567 97.0498 128.433 100.056C129.501 101.516 129.147 102.611 127.01 106.262C124.874 109.913 120.597 113.928 126.656 114.655C130.574 115.387 128.078 117.938 128.078 117.938C128.078 117.938 127.01 120.129 130.215 120.493C130.215 120.493 128.078 124.507 129.86 124.507C131.642 124.507 131.996 125.239 132.355 126.699C132.71 128.158 132.001 136.187 144.468 131.441C147.318 129.981 148.575 135.939 150.168 139.47C151.125 141.592 152.152 144.488 156.936 142.389C161.203 140.515 170.724 136.045 174.297 129.935C176.249 126.588 171.106 121.75 173.602 115.18C176.097 108.61 176.88 110.636 179.375 106.99C181.866 103.339 182.773 98.5921 183.132 94.2139V94.2139Z" fill="#545454"/>
<g clip-path="url(#clip1_208_485)">
<path d="M136.565 85.4323L136.565 85.4329C134.984 88.5246 134.697 92.8789 137.431 98.2765L137.431 98.2767C140.055 103.452 145.457 109.551 155.058 116.137L155.514 116.45L155.97 116.137C165.571 109.551 170.97 103.452 173.596 98.277L173.597 98.2764C176.331 92.8766 176.046 88.5248 174.462 85.4323C171.161 78.9863 161.991 77.1412 156.917 82.3567L156.917 82.3571L155.513 83.8013L154.111 82.3594C149.037 77.1442 139.867 78.986 136.565 85.4323ZM154.482 81.1164L154.483 81.1175C154.639 81.2599 154.79 81.406 154.934 81.5557L155.517 82.1583L156.096 81.553C156.237 81.4054 156.384 81.2634 156.537 81.1273L156.537 81.1274L156.546 81.1189C162.384 75.7405 172.227 78.1033 175.62 85.1794C177.294 88.6699 177.425 93.3948 174.508 99.015C171.624 104.574 165.762 110.99 155.514 117.834C145.266 110.991 139.404 104.575 136.519 99.0168C133.603 93.3972 133.733 88.6727 135.406 85.1822C138.799 78.106 148.642 75.7418 154.482 81.1164Z" fill="white" stroke="black" stroke-width="1.61136"/>
<path d="M173.009 96.7026C171.167 104.99 157.573 115.118 155.514 115.118C153.672 115.118 144.465 106.831 141.702 103.148C147.227 104.99 148.903 104.99 155.514 104.99C159.197 100.386 177.612 91.1779 173.009 96.7026Z" fill="#DA4B51"/>
<path d="M173.009 83.6546C180.375 106.831 157.197 96.2097 151.993 96.2097C150.988 94.1172 154.973 100.255 154.973 96.2097C154.973 92.1649 154.973 96.2097 154.973 83.6546C162.161 74.2383 172.078 80.7268 173.009 83.6546Z" fill="#5189DE"/>
<path d="M159.197 90.1154C159.197 95.5919 151.004 104.989 144.722 104.989C138.441 104.989 134.384 91.107 135.417 90.1154C135.417 82.1826 141.543 79.2078 147.824 79.2078C154.105 79.2078 159.197 84.6389 159.197 90.1154Z" fill="#E49709"/>
</g>
</g>
<path d="M167.484 97.6233C163.801 104.99 160.896 108.594 154.285 108.594C147.674 108.594 146.306 108.594 144.465 105.91C141.702 100.386 153.055 97.8257 154.285 99.4649C155.514 94.7826 153.672 92.1771 167.484 97.6233Z" fill="#71B3CB"/>
<defs>
<clipPath id="clip0_208_485">
<rect width="73.662" height="73.662" fill="white" transform="matrix(-1 0 0 1 188.662 70)"/>
</clipPath>
<clipPath id="clip1_208_485">
<rect width="44.1972" height="44.1972" fill="white" transform="translate(133.415 77.3662)"/>
</clipPath>
</defs>
</svg>
