<svg width="65" height="65" viewBox="0 0 65 65" fill="none" xmlns="http://www.w3.org/2000/svg">
<path d="M47.2239 18.0101C48.5815 16.6586 48.5815 14.4562 47.2239 13.1047L42.2294 8.10631L42.2366 8.11346C40.9147 6.79058 38.6425 4.51664 35.4272 1.30596C33.9125 -0.174238 31.4617 -0.159936 29.9612 1.34172L1.82352 29.4799C1.46352 29.8377 1.17781 30.2633 0.982843 30.7321C0.787875 31.2009 0.6875 31.7036 0.6875 32.2114C0.6875 32.7192 0.787875 33.222 0.982843 33.6908C1.17781 34.1596 1.46352 34.5852 1.82352 34.943L29.954 63.074C30.6793 63.7986 31.6622 64.2056 32.6871 64.2056C33.7119 64.2056 34.6948 63.7986 35.4201 63.074L47.2167 51.2753C48.5743 49.9238 48.5743 47.7214 47.2167 46.3699C46.5647 45.7206 45.6822 45.3561 44.7624 45.3561C43.8425 45.3561 42.9601 45.7206 42.308 46.3699L33.3766 55.3226C33.005 55.6944 32.4263 55.6944 32.0547 55.3226L9.58317 32.855C9.21162 32.4832 9.21162 31.904 9.58317 31.5321L32.0476 9.06451C32.0761 9.03591 32.1119 9.01446 32.1404 8.98585C32.512 8.69267 33.0265 8.72127 33.3694 9.06451L42.3152 18.0101C43.6727 19.3687 45.8735 19.3687 47.2239 18.0101V18.0101ZM25.2382 32.3544C25.2382 34.3685 26.0384 36.3001 27.4628 37.7243C28.8872 39.1484 30.8191 39.9485 32.8335 39.9485C34.8479 39.9485 36.7798 39.1484 38.2042 37.7243C39.6286 36.3001 40.4288 34.3685 40.4288 32.3544C40.4288 30.3404 39.6286 28.4088 38.2042 26.9846C36.7798 25.5605 34.8479 24.7604 32.8335 24.7604C30.8191 24.7604 28.8872 25.5605 27.4628 26.9846C26.0384 28.4088 25.2382 30.3404 25.2382 32.3544ZM63.5506 29.5943L54.7692 20.8489C53.4116 19.4974 51.2109 19.4974 49.8605 20.8561C49.5377 21.1776 49.2816 21.5599 49.1068 21.9808C48.9321 22.4017 48.8421 22.853 48.8421 23.3088C48.8421 23.7646 48.9321 24.2159 49.1068 24.6368C49.2816 25.0577 49.5377 25.4399 49.8605 25.7615L55.7909 31.6894C56.1625 32.0613 56.1625 32.6405 55.7909 33.0123L49.9462 38.8545C49.6234 39.176 49.3673 39.5583 49.1926 39.9792C49.0178 40.4001 48.9279 40.8514 48.9279 41.3072C48.9279 41.763 49.0178 42.2143 49.1926 42.6352C49.3673 43.0561 49.6234 43.4383 49.9462 43.7599C50.5983 44.4092 51.4807 44.7737 52.4006 44.7737C53.3204 44.7737 54.2029 44.4092 54.8549 43.7599L63.5577 35.0574C63.9165 34.6987 64.201 34.2726 64.3948 33.8036C64.5887 33.3346 64.6882 32.8319 64.6875 32.3244C64.6868 31.8168 64.5861 31.3144 64.391 30.8459C64.1959 30.3774 63.9103 29.9521 63.5506 29.5943V29.5943Z" fill="#DC1ED0"/>
</svg>
